<?xml version="1.0" encoding="UTF-8"?>
<svg id="Layer_1" data-name="Layer 1" xmlns="http://www.w3.org/2000/svg" viewBox="0 0 1922.4 1612">
  <rect width="1922.4" height="854" fill="#646b47"/>
  <rect x=".8" y="793.8" width="1921.7" height="818.2" fill="#a48c50"/>
  <path d="M1838.4,732l83.3,28-.4,45H1.1l-.4-49.5c82.9-17.3,165.4-.7,192.8-.7s71.1-38.4,103.8-38.4,255.5-24.4,275.9-29.1c20.4-4.6,135.7,43.6,177.9,51.9,32,6.3,59.9,15,84.5,17.7,37.8,3.6,151.7,4.7,230.3,5.5,78.6.9,115.8-33.2,195.2-40.2,72.1-2.6,187.6-14.9,235.7-18.3,48-3.5,127.4,44.7,150,44.7s85.9.9,107,0,73-16.6,84.6-16.6h0Z" fill="#a48c50"/>
</svg>