<?xml version="1.0" encoding="UTF-8"?>
<svg id="Layer_1" data-name="Layer 1" xmlns="http://www.w3.org/2000/svg" viewBox="0 0 630.5 474.9">
  <path d="M150.7,474.9C53.5,474.9,0,393.9,0,311.2,0,87.5,158.9,8.1,265.8,0v110.2c-56.7,6.5-132.9,50.2-137.8,124.8,3.2-1.6,19.5-8.1,35.7-8.1,81,0,126.4,51.9,126.4,123.2s-58.4,124.8-139.4,124.8ZM491.1,474.9c-97.3,0-149.1-81-149.1-163.7C342,87.5,499.2,8.1,606.2,0v110.2c-56.7,6.5-132.9,50.2-137.8,124.8,3.2-1.6,19.5-8.1,35.7-8.1,81,0,126.4,51.9,126.4,123.2s-58.4,124.8-139.4,124.8Z" fill="#646b47"/>
</svg>