<?xml version="1.0" encoding="UTF-8"?>
<svg id="Layer_1" data-name="Layer 1" xmlns="http://www.w3.org/2000/svg" viewBox="0 0 436.8 482.6">
  <path d="M189.6,298.4c3.5-19.9-1.5-38.5-4-55.3-10.8-86.7,13.5-139.8,93.3-181.9,42-21.4,86.4-41,135.1-61.2-9.8,63.9-9.4,124.1-30.7,183.3-21.3,59.2-61.4,93.2-122.1,104.4-23.5,1.4-46.3,7-71.6,10.8Z" fill="#b29754"/>
  <path d="M436.8,353.9c-16.8,17.6-33.5,35.1-52,55.2-55.6,60-123.5,81-202.4,71.2-35-3.3-69.9-6.7-105.4.8,79.6-158.3,213.8-167.7,359.8-127.2Z" fill="#b29754"/>
  <path d="M59.9,453.5C-8.3,328.1-36.3,198.8,74.8,78.8c9.9,37.2,30.6,75.1,47.2,113.5,27.6,69.1,26.8,135.9-17.3,200.6-13.7,23.6-32.2,43.5-44.7,60.5Z" fill="#b29754"/>
</svg>