<?xml version="1.0" encoding="UTF-8"?>
<svg id="Layer_1" data-name="Layer 1" xmlns="http://www.w3.org/2000/svg" viewBox="0 0 1001.6 702.1">
  <path d="M876.9,113.3c-56,7.3-118.7,21.4-188.2,43.5-61,19.4-127.2,45.1-198.6,78.1-3.8,1.8-7.7,3.6-11.6,5.4-16.3,7.7-32.5,15.5-48.5,23.3-43.4,21.5-85.4,43.7-125.7,66.3-12.3,6.9-24.4,13.8-36.3,20.7-32.5,18.9-63.9,37.9-94,56.9-33.5,21.1-65.4,42.2-95.7,62.9.5.8,1,1.6,1.6,2.5,37,57.3,84.4,105.7,140.9,143.9,2.8,1.9,5.6,3.7,8.4,5.6,17.3-18.4,38.4-39.9,63.2-63.7,28.7-27.5,62.3-58,100.5-89.9,12-10,24.3-20.1,37.2-30.2,38.5-30.6,81-61.8,127.3-92.6,18.1-12,36.8-24,56-35.8,1.1-.7,2.2-1.4,3.3-2.1,69.7-42.5,134-74.4,193.1-97.4,71.5-27.7,135.3-42.3,191.9-46.8v-56.4c-38-1.9-79.5-.2-124.7,5.7Z" fill="#b29755"/>
  <path d="M538.7,424.7c-94.3,75.3-178.8,153.6-252.9,229.3,46.1,22,95,36.6,145.8,43.7,3.9.5,7.5,1,11.1,1.4,13.3,1.5,26.8,2.5,40.2,3,52.8-74.3,121.3-159.4,205.8-243.6,115.4-115,219.7-183.6,311.4-219.5.4-5.7.7-11.5,1-17.2v-.8c.2-2.3.2-4.7.3-7.1v-.3c0-3.8.2-7.9.2-12v-25.1c-33.1,7.1-68.1,17.5-105.1,31.7-101.6,39-221.4,107.7-357.8,216.5Z" fill="#b29755"/>
  <path d="M615.1,607.7c-23.5,30.9-46,61.8-67.4,92.6,25-2.3,49.7-6.5,73.9-12.5,15.4-3.8,30.7-8.4,45.6-13.6l.5-.2,1.6-.6c28.1-10,55-22.4,80.6-37.1,6.1-10.8,12.5-21.6,19-32.4,71.5-118.7,143.2-202.9,212.4-260.7,1.8-6.1,3.5-12.2,5-18.3,4.5-17.6,8-35.7,10.5-53.7.6-4.8,1.3-9.5,1.8-14.3-28.8,14.5-58.5,32.3-89.1,53.7-89.1,62.5-188.6,158.3-294.4,297Z" fill="#b29755"/>
  <path d="M463.6,220.3c1.5-.7,3-1.4,4.5-2.1l2.9-1.4c3-1.4,5.9-2.7,8.8-4.1,59.9-27.6,118.4-51.2,174.2-70.2-58.2-23.5-119.3-46-182.8-66.5C305.3,22.4,168.9.5,60.1,0,39.2,0,19.1.6,0,2v64.3c93.7,5.3,207.1,33.4,342.8,94.3,42.6,19.1,82.9,39.2,120.8,59.7Z" fill="#b29755"/>
  <path d="M292.3,308.6c37.3-20.9,75.2-41,112.8-59.8C268.8,168.7,151.1,120.8,52.5,96.6c-18-4.4-35.5-8.1-52.5-11v68.3c83.1,28.2,177.5,79,283.4,159.8,2.9-1.7,5.9-3.4,8.9-5.1Z" fill="#b29755"/>
  <path d="M157.3,389.1c1.2-.8,2.4-1.5,3.7-2.3,28.8-18.2,58.2-36,87.2-52.9-70.3-58.6-135.8-102.4-195.6-134-17.9-9.5-35.4-17.9-52.5-25.3v27c0,1.6,0,3.2,0,4.8.2,15.5,1,30.9,2.6,46.2,49.4,33.8,101.1,78.5,154.6,136.5Z" fill="#b29755"/>
</svg>